<svg width="30" height="30" viewBox="0 0 30 30" fill="none" xmlns="http://www.w3.org/2000/svg">
<path d="M2 27V13C2 7.47715 6.47715 3 12 3H18C23.5228 3 28 7.47715 28 13V17C28 22.5228 23.5228 27 18 27H7.72" stroke="black" stroke-linecap="round"/>
<path d="M6.65037 19.6316L5.59737 24.5456C5.54058 24.8106 5.30634 25 5.03527 25C4.73367 25 4.48335 24.7669 4.46186 24.4661L4.02319 18.3247C4.00846 18.1185 4.08399 17.916 4.2302 17.7698C4.39876 17.6012 4.6404 17.5281 4.87415 17.5748L5.36377 17.6728C6.26379 17.8528 6.84269 18.7341 6.65037 19.6316Z" stroke="black" stroke-width="0.5"/>
<circle cx="5" cy="27" r="0.75" stroke="black" stroke-width="0.5"/>
<path d="M6.9707 19.8457C7.14648 19.877 7.29102 19.8984 7.4043 19.9102C7.51758 19.9219 7.60938 19.9316 7.67969 19.9395C7.76172 19.9473 7.82617 19.9492 7.87305 19.9453H8.04883C8.11133 19.9453 8.18945 19.9453 8.2832 19.9453C8.38086 19.9414 8.50195 19.9395 8.64648 19.9395C8.72852 20.1309 8.80273 20.3066 8.86914 20.4668C8.93945 20.627 8.99805 20.7637 9.04492 20.877C9.09961 21.0137 9.15039 21.1367 9.19727 21.2461C9.25195 21.3828 9.31055 21.5332 9.37305 21.6973C9.43555 21.8613 9.49219 22.0156 9.54297 22.1602C9.59766 22.3047 9.64258 22.4238 9.67773 22.5176C9.71289 22.6113 9.73047 22.6543 9.73047 22.6465C9.73047 22.6426 9.73242 22.6035 9.73633 22.5293C9.74023 22.4512 9.74414 22.3555 9.74805 22.2422C9.75195 22.125 9.75586 21.998 9.75977 21.8613C9.76758 21.7207 9.77148 21.5859 9.77148 21.457C9.77539 21.3242 9.77734 21.2031 9.77734 21.0938C9.77734 20.9844 9.77344 20.9023 9.76562 20.8477C9.75391 20.7812 9.73047 20.7051 9.69531 20.6191C9.66406 20.5449 9.62109 20.457 9.56641 20.3555C9.51172 20.25 9.43555 20.1309 9.33789 19.998C9.49805 20.002 9.62891 20.0039 9.73047 20.0039C9.83203 20.0039 9.91406 20.0039 9.97656 20.0039C10.0469 20.0039 10.1016 20.002 10.1406 19.998C10.1914 19.998 10.2539 19.9941 10.3281 19.9863C10.3945 19.9785 10.4766 19.9727 10.5742 19.9688C10.6758 19.9609 10.8008 19.9512 10.9492 19.9395C10.8633 20.0176 10.7949 20.0918 10.7441 20.1621C10.6934 20.2324 10.6523 20.2949 10.6211 20.3496C10.5859 20.4121 10.5625 20.4707 10.5508 20.5254C10.5352 20.5957 10.5215 20.7109 10.5098 20.8711C10.502 21.0273 10.4922 21.2031 10.4805 21.3984C10.4727 21.5938 10.4648 21.7969 10.457 22.0078C10.4492 22.2188 10.4414 22.4121 10.4336 22.5879C10.4336 22.7207 10.4297 22.8633 10.4219 23.0156C10.4141 23.1445 10.4062 23.291 10.3984 23.4551C10.3906 23.6152 10.3809 23.7773 10.3691 23.9414L9.84766 23.9531C9.69531 23.6836 9.56641 23.4531 9.46094 23.2617C9.35938 23.0664 9.27539 22.9062 9.20898 22.7812C9.13477 22.6367 9.07227 22.5156 9.02148 22.418C8.97852 22.3242 8.92188 22.2168 8.85156 22.0957C8.79297 21.9941 8.71875 21.8691 8.62891 21.7207C8.54297 21.5723 8.43945 21.4023 8.31836 21.2109C8.30664 21.4805 8.30078 21.7109 8.30078 21.9023C8.30469 22.0898 8.31055 22.2461 8.31836 22.3711C8.33008 22.5156 8.34375 22.6367 8.35938 22.7344C8.37891 22.8281 8.40625 22.9336 8.44141 23.0508C8.47266 23.1523 8.50977 23.2715 8.55273 23.4082C8.59961 23.5449 8.65625 23.6992 8.72266 23.8711C8.49219 23.8594 8.32031 23.8535 8.20703 23.8535H8.03125C7.97656 23.8535 7.90234 23.8594 7.80859 23.8711C7.73047 23.8789 7.62305 23.8906 7.48633 23.9062C7.35352 23.9219 7.1875 23.9434 6.98828 23.9707C7.08203 23.8574 7.15625 23.7539 7.21094 23.6602C7.26953 23.5625 7.31445 23.4805 7.3457 23.4141C7.38477 23.3359 7.41211 23.2676 7.42773 23.209C7.43945 23.1465 7.44727 23.0391 7.45117 22.8867C7.45508 22.7305 7.45508 22.5547 7.45117 22.3594C7.45117 22.1602 7.44727 21.9512 7.43945 21.7324C7.43555 21.5137 7.42969 21.3105 7.42188 21.123C7.41406 20.9355 7.4043 20.7754 7.39258 20.6426C7.38477 20.5098 7.37891 20.4277 7.375 20.3965C7.36328 20.3457 7.33984 20.291 7.30469 20.2324C7.27344 20.1816 7.23242 20.125 7.18164 20.0625C7.13086 19.9961 7.06055 19.9238 6.9707 19.8457ZM12.5195 21.375C12.6211 21.375 12.7266 21.3945 12.8359 21.4336C12.9453 21.4688 13.0508 21.5156 13.1523 21.5742C13.2539 21.6289 13.3457 21.6895 13.4277 21.7559C13.5137 21.8184 13.584 21.8789 13.6387 21.9375C13.7363 22.043 13.8027 22.1855 13.8379 22.3652C13.877 22.541 13.8848 22.7227 13.8613 22.9102C13.8379 23.0938 13.7832 23.2676 13.6973 23.4316C13.6113 23.5957 13.4922 23.7168 13.3398 23.7949C13.2305 23.8496 13.123 23.8926 13.0176 23.9238C12.9121 23.9551 12.8105 23.9785 12.7129 23.9941C12.6152 24.0098 12.5234 24.0176 12.4375 24.0176C12.3516 24.0176 12.2773 24.0156 12.2148 24.0117C12.0977 24.0039 11.9746 23.9629 11.8457 23.8887C11.7207 23.8145 11.6016 23.7227 11.4883 23.6133C11.3789 23.5039 11.2852 23.3848 11.207 23.2559C11.1289 23.123 11.082 22.998 11.0664 22.8809C11.043 22.7207 11.0391 22.5527 11.0547 22.377C11.0703 22.2012 11.127 22.0391 11.2246 21.8906C11.3262 21.7422 11.4785 21.6191 11.6816 21.5215C11.8887 21.4238 12.168 21.375 12.5195 21.375ZM12.3262 23.6484C12.3691 23.6562 12.4277 23.6465 12.502 23.6191C12.5762 23.5879 12.6484 23.5391 12.7188 23.4727C12.793 23.4062 12.8574 23.3223 12.9121 23.2207C12.9707 23.1152 13.0059 22.9883 13.0176 22.8398C13.0293 22.6953 13.0293 22.5625 13.0176 22.4414C13.0098 22.3203 12.9922 22.2148 12.9648 22.125C12.9375 22.0312 12.9062 21.9551 12.8711 21.8965C12.8359 21.8379 12.7988 21.7969 12.7598 21.7734C12.6934 21.7383 12.6133 21.7109 12.5195 21.6914C12.4258 21.668 12.3457 21.6719 12.2793 21.7031C12.248 21.7188 12.209 21.752 12.1621 21.8027C12.1152 21.8535 12.0684 21.918 12.0215 21.9961C11.9746 22.0703 11.9316 22.1562 11.8926 22.2539C11.8574 22.3516 11.832 22.4531 11.8164 22.5586C11.8008 22.6641 11.7969 22.7773 11.8047 22.8984C11.8164 23.0195 11.8418 23.1348 11.8809 23.2441C11.9199 23.3496 11.9746 23.4414 12.0449 23.5195C12.1191 23.5938 12.2129 23.6367 12.3262 23.6484ZM14.0723 20.3086C14.1895 20.3203 14.2871 20.3301 14.3652 20.3379C14.4473 20.3457 14.5137 20.3516 14.5645 20.3555C14.623 20.3594 14.6699 20.3613 14.7051 20.3613C14.7402 20.3652 14.7871 20.3652 14.8457 20.3613C14.8965 20.3574 14.9629 20.3535 15.0449 20.3496C15.127 20.3418 15.2305 20.3301 15.3555 20.3145C15.3281 20.3535 15.3066 20.3887 15.291 20.4199C15.2754 20.4473 15.2617 20.4727 15.25 20.4961L15.2148 20.5664C15.207 20.5898 15.1992 20.6133 15.1914 20.6367C15.1836 20.6562 15.1758 20.6797 15.168 20.707C15.1641 20.7344 15.1602 20.7637 15.1562 20.7949H16.0586L15.9766 21.2695L15.1504 21.2227C15.1309 21.4219 15.1172 21.5762 15.1094 21.6855C15.1016 21.7949 15.0938 21.875 15.0859 21.9258L15.0742 22.0312C15.0625 22.1797 15.0508 22.3418 15.0391 22.5176C15.0273 22.6895 15.0234 22.8496 15.0273 22.998C15.0312 23.1465 15.0449 23.2715 15.0684 23.373C15.0918 23.4707 15.1328 23.5195 15.1914 23.5195C15.25 23.5195 15.3047 23.5039 15.3555 23.4727C15.4062 23.4414 15.4492 23.4043 15.4844 23.3613C15.5234 23.3184 15.5527 23.2754 15.5723 23.2324C15.5918 23.1855 15.6016 23.1504 15.6016 23.127C15.6016 23.1035 15.5957 23.0762 15.584 23.0449C15.5645 22.9863 15.5293 22.9121 15.4785 22.8223C15.5918 22.8496 15.6914 22.877 15.7773 22.9043C15.8203 22.9199 15.8594 22.9355 15.8945 22.9512C15.9336 22.9668 15.9785 22.9844 16.0293 23.0039C16.0723 23.0234 16.127 23.0469 16.1934 23.0742C16.2598 23.1016 16.3379 23.1348 16.4277 23.1738C16.3418 23.1895 16.2793 23.2148 16.2402 23.25C16.2168 23.2656 16.1992 23.2832 16.1875 23.3027C16.1602 23.3457 16.1289 23.4043 16.0938 23.4785C16.0586 23.5488 16.0059 23.6191 15.9355 23.6895C15.8652 23.7598 15.7695 23.8223 15.6484 23.877C15.5312 23.9316 15.373 23.9629 15.1738 23.9707C14.9668 23.9785 14.8086 23.9434 14.6992 23.8652C14.5938 23.7871 14.5156 23.6973 14.4648 23.5957C14.418 23.4902 14.3906 23.3867 14.3828 23.2852C14.375 23.1836 14.3691 23.1152 14.3652 23.0801C14.3613 23.0449 14.3613 22.957 14.3652 22.8164C14.3691 22.6758 14.375 22.5215 14.3828 22.3535C14.3906 22.1816 14.3984 22.0176 14.4062 21.8613C14.4141 21.7012 14.418 21.584 14.418 21.5098C14.418 21.4707 14.4199 21.4297 14.4238 21.3867C14.4238 21.3516 14.4238 21.3145 14.4238 21.2754C14.4277 21.2324 14.4297 21.1914 14.4297 21.1523L13.5801 21.1465L13.5449 20.8125L14.4004 20.8359C14.3926 20.793 14.3828 20.7539 14.3711 20.7188C14.3633 20.6797 14.3555 20.6484 14.3477 20.625C14.3359 20.5977 14.3242 20.5742 14.3125 20.5547C14.2969 20.5352 14.2793 20.5137 14.2598 20.4902C14.2402 20.4707 14.2148 20.4453 14.1836 20.4141C14.1523 20.3828 14.1152 20.3477 14.0723 20.3086ZM17.7109 23.0566C17.8203 23.0566 17.9219 23.0449 18.0156 23.0215C18.0938 23.002 18.168 22.9707 18.2383 22.9277C18.3125 22.8809 18.3613 22.8125 18.3848 22.7227C18.4629 22.7383 18.5293 22.752 18.584 22.7637C18.6387 22.7715 18.6855 22.7793 18.7246 22.7871C18.7676 22.7988 18.8047 22.8066 18.8359 22.8105C18.8672 22.8184 18.9043 22.8262 18.9473 22.834C18.9863 22.8418 19.0332 22.8516 19.0879 22.8633C19.1465 22.8711 19.2148 22.8828 19.293 22.8984C19.2344 22.8906 19.1738 22.8965 19.1113 22.916C19.0527 22.9355 18.9961 22.957 18.9414 22.9805C18.8789 23.0078 18.8203 23.041 18.7656 23.0801C18.7305 23.1035 18.6895 23.1387 18.6426 23.1855C18.5996 23.2324 18.5371 23.2773 18.4551 23.3203C18.373 23.3633 18.2637 23.4004 18.127 23.4316C17.9941 23.459 17.8223 23.4688 17.6113 23.4609C17.3574 23.4531 17.1445 23.4082 16.9727 23.3262C16.8008 23.2402 16.6621 23.1367 16.5566 23.0156C16.4512 22.8906 16.375 22.7559 16.3281 22.6113C16.2812 22.4668 16.2559 22.332 16.252 22.207C16.248 22.082 16.2852 21.9512 16.3633 21.8145C16.4414 21.6777 16.5508 21.5527 16.6914 21.4395C16.8359 21.3262 17.0098 21.2344 17.2129 21.1641C17.416 21.0898 17.6387 21.0527 17.8809 21.0527C18.0215 21.0527 18.1504 21.0703 18.2676 21.1055C18.3887 21.1367 18.498 21.1797 18.5957 21.2344C18.6973 21.2891 18.7852 21.3516 18.8594 21.4219C18.9336 21.4883 18.9961 21.5566 19.0469 21.627C19.0977 21.7012 19.1406 21.7793 19.1758 21.8613C19.207 21.9316 19.2324 22.0117 19.252 22.1016C19.2715 22.1914 19.2773 22.2832 19.2695 22.377C18.9727 22.3848 18.7324 22.3906 18.5488 22.3945C18.3691 22.3984 18.2285 22.4004 18.127 22.4004H17.8633H17.6641C17.5938 22.4004 17.502 22.4023 17.3887 22.4062C17.2754 22.4102 17.1367 22.416 16.9727 22.4238C16.9922 22.5801 17.041 22.7012 17.1191 22.7871C17.2012 22.8691 17.2871 22.9316 17.377 22.9746C17.4785 23.0215 17.5898 23.0488 17.7109 23.0566ZM17.1836 22.002C17.3086 22.0098 17.4121 22.0156 17.4941 22.0195C17.5801 22.0234 17.6504 22.0273 17.7051 22.0312C17.7637 22.0352 17.8105 22.0371 17.8457 22.0371H17.9922C18.0898 22.0371 18.2715 22.0312 18.5371 22.0195C18.5254 21.8477 18.4883 21.7168 18.4258 21.627C18.3672 21.5371 18.3047 21.4707 18.2383 21.4277C18.1602 21.3809 18.0742 21.3535 17.9805 21.3457C17.7266 21.3496 17.5371 21.4023 17.4121 21.5039C17.291 21.6055 17.2148 21.7715 17.1836 22.002ZM22.0879 20.6543C22.0527 20.7402 22.0215 20.8184 21.9941 20.8887C21.9707 20.959 21.9492 21.0215 21.9297 21.0762C21.9102 21.1387 21.8926 21.1934 21.877 21.2402C21.8613 21.2949 21.8438 21.3574 21.8242 21.4277C21.8047 21.4902 21.7793 21.5684 21.748 21.6621C21.7207 21.752 21.6875 21.8594 21.6484 21.9844C21.6172 21.7969 21.5605 21.6484 21.4785 21.5391C21.3965 21.4258 21.3125 21.3379 21.2266 21.2754C21.125 21.2051 21.0156 21.1543 20.8984 21.123C20.6875 21.0879 20.5352 21.0918 20.4414 21.1348C20.3477 21.1777 20.2852 21.2324 20.2539 21.2988C20.2383 21.3262 20.2207 21.3613 20.2012 21.4043C20.1855 21.4434 20.1719 21.4844 20.1602 21.5273C20.1523 21.5703 20.1504 21.6133 20.1543 21.6562C20.1582 21.6992 20.1758 21.7344 20.207 21.7617C20.2266 21.7812 20.2773 21.8086 20.3594 21.8438C20.4414 21.875 20.5391 21.9121 20.6523 21.9551C20.7695 21.9941 20.8926 22.0371 21.0215 22.084C21.1543 22.1309 21.2793 22.1777 21.3965 22.2246C21.5137 22.2715 21.6152 22.3184 21.7012 22.3652C21.7871 22.4121 21.8438 22.4551 21.8711 22.4941C21.8945 22.5332 21.9199 22.5859 21.9473 22.6523C21.9785 22.7148 22 22.7852 22.0117 22.8633C22.0273 22.9375 22.0312 23.0156 22.0234 23.0977C22.0195 23.1758 21.998 23.2539 21.959 23.332C21.9199 23.4102 21.8574 23.4824 21.7715 23.5488C21.6895 23.6152 21.5781 23.6699 21.4375 23.7129C21.2734 23.7637 21.1152 23.7773 20.9629 23.7539C20.8105 23.7305 20.6699 23.6953 20.541 23.6484C20.416 23.6016 20.3066 23.5566 20.2129 23.5137C20.1191 23.4668 20.0527 23.4473 20.0137 23.4551C19.9707 23.4629 19.9219 23.4844 19.8672 23.5195C19.8125 23.5547 19.7598 23.5918 19.709 23.6309C19.6621 23.666 19.6211 23.6992 19.5859 23.7305C19.5508 23.7578 19.5332 23.7676 19.5332 23.7598C19.5332 23.752 19.5391 23.7285 19.5508 23.6895C19.5664 23.6504 19.582 23.6035 19.5977 23.5488C19.6172 23.4902 19.6348 23.4277 19.6504 23.3613C19.6699 23.291 19.6836 23.2246 19.6914 23.1621C19.6992 23.1113 19.709 23.0488 19.7207 22.9746C19.7285 22.9082 19.7383 22.8281 19.75 22.7344C19.7656 22.6367 19.7832 22.5195 19.8027 22.3828C19.8223 22.4844 19.8496 22.5723 19.8848 22.6465C19.9238 22.7207 19.9609 22.7852 19.9961 22.8398C20.0391 22.9023 20.0801 22.9551 20.1191 22.998C20.1777 23.0527 20.2461 23.1035 20.3242 23.1504C20.4062 23.1973 20.4883 23.2383 20.5703 23.2734C20.6523 23.3047 20.7305 23.3242 20.8047 23.332C20.8789 23.3398 20.9414 23.332 20.9922 23.3086C21.043 23.2852 21.0859 23.2422 21.1211 23.1797C21.1602 23.1172 21.1875 23.0488 21.2031 22.9746C21.2188 22.9004 21.2246 22.8301 21.2207 22.7637C21.2168 22.6934 21.1992 22.6367 21.168 22.5938C21.1445 22.5664 21.0898 22.5312 21.0039 22.4883C20.9219 22.4453 20.8223 22.3984 20.7051 22.3477C20.5918 22.2969 20.4707 22.2441 20.3418 22.1895C20.2168 22.1348 20.0977 22.0801 19.9844 22.0254C19.875 21.9668 19.7832 21.9121 19.709 21.8613C19.6387 21.8066 19.5996 21.7578 19.5918 21.7148C19.584 21.6523 19.5781 21.584 19.5742 21.5098C19.5703 21.4316 19.5742 21.3555 19.5859 21.2812C19.6016 21.2031 19.6289 21.1289 19.668 21.0586C19.7109 20.9883 19.7734 20.9297 19.8555 20.8828C19.9102 20.8516 19.9824 20.8281 20.0723 20.8125C20.1621 20.7969 20.2617 20.7891 20.3711 20.7891C20.4805 20.7852 20.5938 20.7891 20.7109 20.8008C20.8281 20.8086 20.9395 20.8203 21.0449 20.8359C21.1543 20.8477 21.252 20.8633 21.3379 20.8828C21.4277 20.9023 21.4961 20.9199 21.543 20.9355C21.5977 20.9551 21.6562 20.957 21.7188 20.9414C21.7734 20.9297 21.832 20.9043 21.8945 20.8652C21.957 20.8262 22.0215 20.7559 22.0879 20.6543Z" fill="black"/>
</svg>
